<svg width="115" height="26" viewBox="0 0 115 26" fill="none" xmlns="http://www.w3.org/2000/svg">
<g clip-path="url(#clip0_1_2702)">
<path d="M40.6185 14.8516L39.9341 16.779H39.8771C39.763 16.3444 39.5539 15.683 39.2117 14.8894L35.5427 5.72518H31.9497V20.3313H34.326V11.3182C34.326 10.7513 34.326 10.1089 34.307 9.31529C34.288 8.91849 34.25 8.61617 34.231 8.38942H34.288C34.4021 8.95628 34.5351 9.37198 34.6302 9.63651L39.0406 20.2935H40.7136L45.086 9.54204C45.181 9.2964 45.2761 8.80512 45.3711 8.38942H45.4282C45.3711 9.46646 45.3331 10.4301 45.3141 11.0159V20.2746H47.8425V5.68739H44.3826L40.6185 14.8516ZM50.2378 9.80657H52.7092V20.2746H50.2378V9.80657ZM51.4925 5.38506C51.0743 5.38506 50.7321 5.53622 50.4469 5.80076C50.1618 6.06529 50.0097 6.40541 50.0097 6.82111C50.0097 7.21791 50.1618 7.55803 50.4469 7.82256C50.7321 8.0871 51.0743 8.21936 51.4925 8.21936C51.9107 8.21936 52.2719 8.0682 52.5381 7.82256C52.8233 7.55803 52.9753 7.21791 52.9753 6.82111C52.9753 6.4243 52.8233 6.08419 52.5381 5.80076C52.291 5.53622 51.9298 5.38506 51.4925 5.38506ZM61.473 9.7121C61.0168 9.61762 60.5415 9.56093 60.0853 9.56093C58.9637 9.56093 57.9371 9.80657 57.0816 10.2979C56.2261 10.7891 55.5418 11.4694 55.1045 12.3197C54.6483 13.1888 54.4201 14.1903 54.4201 15.3429C54.4201 16.3444 54.6483 17.2324 55.0855 18.0449C55.5227 18.8385 56.1311 19.481 56.9485 19.9156C57.728 20.3502 58.6405 20.5769 59.667 20.5769C60.8457 20.5769 61.8533 20.3313 62.6517 19.8778L62.6707 19.8589V17.5915L62.5757 17.667C62.2145 17.9316 61.7962 18.1583 61.378 18.2906C60.9407 18.4417 60.5415 18.5173 60.1993 18.5173C59.2108 18.5173 58.4314 18.2339 57.8801 17.6104C57.3097 17.0057 57.0246 16.1743 57.0246 15.1351C57.0246 14.058 57.3097 13.2077 57.8991 12.5842C58.4884 11.9606 59.2678 11.6394 60.2183 11.6394C61.0168 11.6394 61.8342 11.904 62.5757 12.433L62.6707 12.5086V10.1089L62.6517 10.09C62.3285 9.95774 61.9673 9.80657 61.473 9.7121ZM69.6285 9.63651C69.0202 9.63651 68.4499 9.82547 67.9556 10.2223C67.5374 10.5624 67.2522 11.0537 67.0051 11.6394H66.9861V9.80657H64.5147V20.2746H66.9861V14.9272C66.9861 14.0202 67.1762 13.2644 67.5944 12.7165C68.0127 12.1496 68.545 11.8662 69.1913 11.8662C69.4194 11.8662 69.6476 11.9229 69.9327 11.9606C70.1989 12.0362 70.389 12.1118 70.522 12.2063L70.6171 12.2819V9.82547L70.5601 9.80657C70.389 9.6932 70.0468 9.63651 69.6285 9.63651ZM76.3583 9.57983C74.6283 9.57983 73.2406 10.09 72.271 11.0915C71.2825 12.0929 70.8072 13.4723 70.8072 15.2106C70.8072 16.8356 71.3015 18.1583 72.252 19.122C73.2025 20.0667 74.4952 20.558 76.1111 20.558C77.8031 20.558 79.1528 20.0479 80.1224 19.0275C81.1109 18.0072 81.5862 16.6467 81.5862 14.965C81.5862 13.3022 81.1299 11.9795 80.1984 11.0159C79.3049 10.0522 77.9932 9.57983 76.3583 9.57983ZM78.3354 17.6292C77.8791 18.215 77.1567 18.4984 76.2632 18.4984C75.3697 18.4984 74.6473 18.215 74.134 17.5915C73.6208 17.0057 73.3736 16.1554 73.3736 15.0784C73.3736 13.9635 73.6398 13.1133 74.134 12.5086C74.6473 11.904 75.3507 11.6016 76.2442 11.6016C77.1187 11.6016 77.8031 11.8851 78.2973 12.4708C78.7916 13.0566 79.0578 13.9069 79.0578 15.0217C79.0197 16.1554 78.8106 17.0435 78.3354 17.6292ZM87.0992 14.1525C86.3198 13.8313 85.8255 13.5856 85.5974 13.3778C85.4073 13.1888 85.3122 12.9243 85.3122 12.5842C85.3122 12.3008 85.4263 12.0173 85.7114 11.8284C85.9966 11.6394 86.3198 11.5449 86.795 11.5449C87.2133 11.5449 87.6505 11.6205 88.0687 11.7339C88.487 11.8473 88.8672 12.0173 89.1714 12.2441L89.2664 12.3197V10.0144L89.2094 9.99553C88.9242 9.88215 88.544 9.76878 88.0878 9.67431C87.6315 9.59872 87.2133 9.56093 86.8711 9.56093C85.6924 9.56093 84.7229 9.84436 83.9625 10.4679C83.2021 11.0537 82.8409 11.8473 82.8409 12.7731C82.8409 13.2644 82.9169 13.699 83.088 14.058C83.2591 14.417 83.5062 14.7572 83.8484 15.0406C84.1906 15.3051 84.6849 15.6074 85.3693 15.8909C85.9396 16.1365 86.3768 16.3255 86.643 16.4766C86.9091 16.6278 87.0802 16.7979 87.2133 16.9301C87.3083 17.0813 87.3654 17.2702 87.3654 17.5159C87.3654 18.215 86.8331 18.5551 85.7495 18.5551C85.3312 18.5551 84.894 18.4795 84.3807 18.3095C83.8674 18.1394 83.3922 17.8938 82.9929 17.6104L82.8979 17.5348V19.9345L82.9549 19.9534C83.3161 20.1234 83.7534 20.2368 84.2857 20.3691C84.818 20.4635 85.2932 20.5391 85.7114 20.5391C86.9852 20.5391 88.0307 20.2557 88.7721 19.6322C89.5326 19.0275 89.9318 18.2528 89.9318 17.2513C89.9318 16.5522 89.7417 15.9287 89.3234 15.4563C88.7721 15.0028 88.0878 14.5304 87.0992 14.1525ZM96.4524 9.57983C94.7224 9.57983 93.3347 10.09 92.3651 11.0915C91.3956 12.0929 90.9013 13.4723 90.9013 15.2106C90.9013 16.8356 91.3956 18.1583 92.3461 19.122C93.2966 20.0667 94.5894 20.558 96.2053 20.558C97.8972 20.558 99.2469 20.0479 100.216 19.0275C101.205 18.0072 101.68 16.6467 101.68 14.965C101.68 13.3022 101.224 11.9795 100.293 11.0159C99.399 10.0522 98.0873 9.57983 96.4524 9.57983ZM98.4105 17.6292C97.9542 18.215 97.2318 18.4984 96.3383 18.4984C95.4258 18.4984 94.7224 18.215 94.2091 17.5915C93.6959 17.0057 93.4487 16.1554 93.4487 15.0784C93.4487 13.9635 93.7149 13.1133 94.2091 12.5086C94.7224 11.904 95.4258 11.6016 96.3193 11.6016C97.1748 11.6016 97.8782 11.8851 98.3725 12.4708C98.8667 13.0566 99.1329 13.9069 99.1329 15.0217C99.1329 16.1554 98.8857 17.0435 98.4105 17.6292ZM114.893 11.8284V9.80657H112.402V6.70774L112.326 6.72663L109.969 7.42576L109.912 7.44465V9.80657H106.186V8.4839C106.186 7.87925 106.338 7.40686 106.604 7.10454C106.87 6.80221 107.269 6.65105 107.764 6.65105C108.106 6.65105 108.467 6.72663 108.866 6.89669L108.961 6.95337V4.8182L108.904 4.79931C108.562 4.68593 108.106 4.61035 107.517 4.61035C106.775 4.61035 106.129 4.78041 105.539 5.06384C104.95 5.38506 104.513 5.81965 104.19 6.40541C103.866 6.97227 103.695 7.61471 103.695 8.35163V9.80657H101.965V11.8095H103.695V20.2746H106.186V11.8284H109.912V17.2136C109.912 19.4243 110.957 20.5391 113.049 20.5391C113.391 20.5391 113.752 20.4824 114.094 20.4258C114.455 20.3502 114.721 20.2557 114.874 20.1801L114.893 20.1612V18.1394L114.798 18.215C114.645 18.3095 114.512 18.3851 114.284 18.4417C114.094 18.4984 113.923 18.5173 113.79 18.5173C113.296 18.5173 112.954 18.404 112.706 18.1205C112.478 17.856 112.364 17.4214 112.364 16.779V11.8284H114.893Z" fill="#737373"/>
<path d="M0.0881348 0.8125H11.7416V12.3953H0.0881348V0.8125Z" fill="#F25022"/>
<path d="M12.9583 0.8125H24.6117V12.3953H12.9583V0.8125Z" fill="#7FBA00"/>
<path d="M0.0881348 13.6047H11.7416V25.1876H0.0881348V13.6047Z" fill="#00A4EF"/>
<path d="M12.9583 13.6047H24.6117V25.1876H12.9583V13.6047Z" fill="#FFB900"/>
</g>
<defs>
<clipPath id="clip0_1_2702">
<rect width="114.824" height="24.375" fill="white" transform="translate(0.0881348 0.8125)"/>
</clipPath>
</defs>
</svg>
