<svg width="93" height="32" viewBox="0 0 93 32" fill="none" xmlns="http://www.w3.org/2000/svg">
<g clip-path="url(#clip0_1_2720)">
<path fill-rule="evenodd" clip-rule="evenodd" d="M81.6774 14.9133L75.807 25.0705L70.7986 25.0904L81.6774 5.97236L92.5155 25.0904H87.4277L81.6774 14.9123V14.9133ZM65.8704 20.6687H71.4799L68.8755 25.0904H61.5641L61.5839 19.7065V6.0899H65.8912L65.8714 20.6687H65.8704ZM50.486 6.09089C55.8346 6.11082 60.1617 10.3542 60.1419 15.5996C60.1221 20.8261 55.7949 25.0705 50.4453 25.0705C45.1165 25.0505 40.7894 20.8072 40.7894 15.5608C40.8092 10.3343 45.1363 6.09089 50.486 6.09089ZM50.4661 20.6498C53.3304 20.6498 55.6333 18.3897 55.6333 15.5996C55.6541 12.8105 53.3304 10.5305 50.486 10.5305C47.6406 10.5106 45.3168 12.7906 45.3168 15.5807C45.297 18.3697 47.6207 20.6498 50.4651 20.6498H50.4661ZM32.8165 14.0905C32.7569 13.3036 32.5556 12.2627 32.2551 11.2616C31.6368 9.19385 30.5617 7.29289 29.1102 5.70043C28.3485 4.87566 27.4876 4.10867 26.2043 3.20521C25.226 2.72031 24.2641 2.20272 23.3202 1.6533C22.6993 1.29968 21.9575 0.866382 20.9766 0.552613C19.8136 0.276896 18.6248 0.125642 17.43 0.101382C16.2696 0.0615386 15.1063 0.161148 13.9846 0.376304C12.8024 0.572535 11.8205 0.886304 10.5183 1.20107C7.57275 2.47806 5.28968 4.40351 3.32596 6.95849C-3.52524 16.5658 2.66543 30.025 14.1046 31.6158C15.988 31.8718 17.8714 31.7732 19.6536 31.3608L20.9161 31.0271C20.9558 31.0072 21.0163 30.9873 21.056 30.9873L22.499 30.4374C22.5783 30.3976 22.6388 30.3777 22.7192 30.3388L23.3202 30.0639C24.4734 29.4923 25.5558 28.7869 26.5454 27.9621C25.6446 28.7842 24.6649 29.5146 23.6207 30.1426L23.6802 30.1824C23.8815 30.1227 24.061 30.0639 24.2614 30.025C24.2614 30.025 24.2614 30.3388 24.2217 30.28C23.9014 30.5161 24.4022 30.3 25.0429 29.9653C25.6846 29.6316 26.3054 29.2182 26.8658 28.747C27.688 28.0597 28.409 27.3127 29.4305 26.0954C30.4719 24.2676 31.7751 22.6759 32.3761 20.5343C32.5764 19.9645 32.756 19.2971 32.877 18.6088C32.996 17.9215 33.0773 17.2143 33.0773 16.4871C33.0575 15.76 32.9771 15.0129 32.8165 14.0905ZM17.9914 30.2412C21.4973 29.6903 24.4419 27.746 26.846 25.0934C27.5075 24.1302 28.0282 23.2456 28.6688 22.2834C29.4702 20.3181 29.4107 18.57 29.6705 17.3328C29.9919 15.0916 29.2302 13.2847 28.5895 11.3592C27.6076 9.11902 26.3054 7.44957 24.0214 6.15265C18.2512 2.57668 10.3983 3.57775 6.65238 8.92279C6.63254 8.92279 6.53138 9.06025 6.33104 9.33517C6.59188 8.23549 7.2534 7.58703 7.91392 6.9575C9.87764 5.34681 12.1617 4.06882 14.7661 3.44128C17.7117 3.12652 20.6354 3.44128 23.2597 4.71828C27.1871 6.9575 29.7915 10.4757 30.4521 14.6394V18.4913C29.6309 24.7985 24.2217 29.5927 17.9914 30.2412ZM32.3959 15.8974C32.2551 6.66365 23.1 0.435074 14.1849 1.69314C11.5805 2.3406 8.73511 3.63752 6.71189 5.44543C5.73003 6.09289 5.26984 7.29218 4.28798 8.25441C0.360544 14.0118 1.04289 21.3799 5.93037 25.8604C6.5573 26.4829 7.22672 27.0607 7.93375 27.5896C3.84763 25.1322 2.00392 21.4178 1.36323 16.9005C1.36323 15.2888 1.68357 13.6971 2.02375 12.0864C4.30881 5.03205 11.5002 -0.0958442 19.3342 1.20107C20.6364 1.51584 21.9386 1.84953 23.2617 2.16429C24.9041 2.81175 26.5266 3.77498 27.8288 5.05296C29.131 6.32896 30.1129 7.94064 31.0947 9.5314C31.7553 10.8094 32.0766 12.4201 32.3969 13.6971C32.4564 14.4242 32.4564 15.1713 32.3969 15.8984L32.3959 15.8974Z" fill="#1D1E25"/>
<path fill-rule="evenodd" clip-rule="evenodd" d="M24.2622 16.0358C24.2622 20.0052 20.9368 23.2276 16.8298 23.2276C12.7239 23.2276 9.39746 20.0052 9.39746 16.0358C9.39746 12.0673 12.7229 8.84497 16.8298 8.84497C20.9368 8.84497 24.2622 12.0673 24.2622 16.0368V16.0358Z" fill="white"/>
<path fill-rule="evenodd" clip-rule="evenodd" d="M24.3029 14.8176C24.2027 14.2678 24.042 13.8355 23.8824 13.2268C23.2407 11.8901 22.2995 10.8492 21.0568 9.96464C16.4093 6.88074 10.0183 9.8471 9.33794 15.1135C9.07809 17.1963 9.81895 19.2004 11.141 20.7334C10.7403 20.32 10.3 19.8887 9.99945 19.3967L9.95978 19.4365C9.99945 19.554 10.1601 19.6327 10.1998 19.7503C10.1998 19.7503 10.0391 19.7503 10.0798 19.7303C9.95978 19.5939 10.06 19.81 10.2395 20.1039C10.4001 20.3987 10.6005 20.6746 10.8405 20.9296C11.1817 21.3032 11.5417 21.6369 12.1427 22.0891C13.0254 22.5403 13.8059 23.13 14.8274 23.4049C15.1081 23.4846 15.4284 23.5623 15.7498 23.6211C16.09 23.6809 16.4103 23.7008 16.7713 23.7008C17.1115 23.7008 17.4725 23.6609 17.9128 23.5812C18.3669 23.5275 18.8158 23.4359 19.2547 23.3073C20.2352 23.0109 21.1384 22.5007 21.8998 21.8132C22.2806 21.4606 22.8221 21.0083 23.2417 20.4186C23.5828 19.7513 23.6225 19.4166 23.7832 19.1217C23.9429 18.8269 24.1432 18.4932 24.284 18.041C24.3988 17.5045 24.4659 16.9588 24.4844 16.4104C24.4645 15.8605 24.4249 15.3296 24.3039 14.8186L24.3029 14.8176ZM19.5344 11.1639C20.2158 11.5564 20.3159 11.6152 19.9549 11.3602C20.4766 11.4777 20.7969 11.7726 21.1173 12.0674C21.8988 12.9519 22.5395 13.9928 22.8598 15.1911C23.0403 16.5468 22.8995 17.9025 22.3193 19.1018C21.2779 20.9286 19.6147 22.1469 17.6312 22.4806C17.411 22.4806 17.171 22.4806 16.9498 22.5005C17.5112 22.4019 17.8722 22.0483 18.8937 21.6747C19.9946 21.2823 21.2373 19.4554 21.8393 18.3936C23.6017 15.5049 21.518 12.8334 19.5344 11.1639ZM15.7686 22.5194C12.7239 22.2056 10.3793 19.7104 10.059 16.8218C10.3386 18.4334 11.3007 19.6706 12.6029 20.7713C13.064 21.0661 13.7444 21.4785 14.2056 21.7733C14.9871 22.0682 15.4473 22.3829 16.209 22.5204H15.7686V22.5194ZM23.9617 17.274C23.8228 17.8836 23.682 18.4723 23.5412 19.0819C23.2407 19.829 22.8003 20.595 22.1993 21.2036C21.5983 21.8132 20.8366 22.2843 20.0759 22.7366C19.4749 23.0503 18.7132 23.2077 18.0924 23.3641C17.7314 23.4039 17.3108 23.2466 16.9498 23.2276C21.398 23.1091 24.4427 18.9644 23.7822 14.8575C23.4608 13.6592 22.8202 12.6172 22.0386 11.5763C21.7183 11.1241 21.0965 10.8492 20.6363 10.3969C17.8514 8.6488 14.1659 9.00242 12.0624 11.3014C11.7674 11.6035 11.4927 11.925 11.2402 12.2636C12.3629 10.6131 14.1659 9.45464 16.329 9.11996C17.0907 9.10003 17.8722 9.23849 18.6329 9.37595C21.999 10.3969 24.5032 13.6592 23.9617 17.275V17.274Z" fill="#D7DF23"/>
</g>
<defs>
<clipPath id="clip0_1_2720">
<rect width="92.2353" height="31.875" fill="white" transform="translate(0.382324 0.0625)"/>
</clipPath>
</defs>
</svg>
